<?xml version="1.0" encoding="utf-8"?>
<!-- Generator: Adobe Illustrator 19.1.0, SVG Export Plug-In . SVG Version: 6.00 Build 0)  -->
<svg version="1.1" xmlns="http://www.w3.org/2000/svg" xmlns:xlink="http://www.w3.org/1999/xlink" x="0px" y="0px"
	 viewBox="0 0 1920 1080" style="enable-background:new 0 0 1920 1080;" xml:space="preserve">
<style type="text/css">
	.st0{fill:none;stroke:#000000;stroke-width:2;stroke-miterlimit:10;}
	.st1{fill:#BA8FFF;}
	.st2{fill:#34314C;}
	.st3{font-family:'Soleil-Bold';}
	.st4{font-size:22.0424px;}
	.st5{letter-spacing:1;}
	.st6{fill:#353535;}
</style>
<g id="Layer_1">
	<g>
		<g>
			<line class="st0" x1="151" y1="565" x2="233" y2="565"/>
			<g>
				<polygon points="225.9,573.2 224.5,571.7 231.7,565 224.5,558.3 225.9,556.8 234.7,565 				"/>
			</g>
		</g>
	</g>
	<g>
		<text transform="matrix(1 0 0 1 61.3513 557.658)"><tspan x="0" y="0" class="st2 st3 st4 st5">sense </tspan><tspan x="0" y="26.5" class="st2 st3 st4 st5">intent</tspan></text>
	</g>
	<g>
		<text transform="matrix(1 0 0 1 250.8181 570.8835)" class="st2 st3 st4 st5">research</text>
	</g>
	<g>
		<text transform="matrix(1 0 0 1 471.3418 557.6577)"><tspan x="0" y="0" class="st2 st3 st4 st5">frame insights</tspan><tspan x="0.8" y="26.5" class="st2 st3 st4 st5">and principals</tspan></text>
	</g>
	<g>
		<text transform="matrix(1 0 0 1 762.8418 557.6577)"><tspan x="0" y="0" class="st2 st3 st4 st5">generate</tspan><tspan x="0" y="26.5" class="st2 st3 st4 st5">concepts</tspan></text>
	</g>
	<g>
		<g>
			<line class="st0" x1="372" y1="565" x2="453" y2="565"/>
			<g>
				<polygon points="446.4,573.2 445,571.7 452.3,565 445,558.3 446.4,556.8 455.2,565 				"/>
			</g>
		</g>
	</g>
	<g>
		<g>
			<line class="st0" x1="889" y1="565" x2="970" y2="565"/>
			<g>
				<polygon points="963.7,573.2 962.4,571.7 969.6,565 962.4,558.3 963.7,556.8 972.5,565 				"/>
			</g>
		</g>
	</g>
	<g>
		<g>
			<line class="st0" x1="663" y1="565" x2="745" y2="565"/>
			<g>
				<polygon points="737.9,573.2 736.5,571.7 743.8,565 736.5,558.3 737.9,556.8 746.7,565 				"/>
			</g>
		</g>
	</g>
	<g>
		<g>
			<path class="st0" d="M1070.5,603.5c0,55.2,44.8,100,100,100c54.5,0,98.8-43.6,100-97.8"/>
			<g>
				<polygon points="1278.3,612.6 1276.8,613.9 1270.4,606.4 1263.4,613.4 1262,612 1270.5,603.5 				"/>
			</g>
		</g>
	</g>
	<g>
		<text transform="matrix(1 0 0 1 988.657 557.6577)"><tspan x="0" y="0" class="st2 st3 st4 st5">evaluate on</tspan><tspan x="11.2" y="26.5" class="st2 st3 st4 st5">principals</tspan></text>
	</g>
	<g>
		<text transform="matrix(1 0 0 1 1247.9092 570.8833)" class="st2 st3 st4 st5">prototype</text>
	</g>
	<g>
		<g>
			<path class="st0" d="M1270.5,516.5c0-55.2-44.8-100-100-100c-54.5,0-98.8,43.6-100,97.8"/>
			<g>
				<polygon points="1062.7,507.4 1064.2,506.1 1070.6,513.6 1077.6,506.6 1079,508 1070.5,516.5 				"/>
			</g>
		</g>
	</g>
	<g>
		<g>
			<path class="st0" d="M1357.5,603.5c0,55.2,44.8,100,100,100c54.5,0,98.8-43.6,100-97.8"/>
			<g>
				<polygon points="1565.3,612.6 1563.8,613.9 1557.4,606.4 1550.4,613.4 1549,612 1557.5,603.5 				"/>
			</g>
		</g>
	</g>
	<g>
		<g>
			<path class="st0" d="M1332.5,603.5c0,69,56,125,125,125c68.3,0,123.8-54.8,125-122.8"/>
			<g>
				<polygon points="1590.4,612.5 1588.9,613.9 1582.4,606.4 1575.5,613.4 1574.1,612 1582.5,603.5 				"/>
			</g>
		</g>
	</g>
	<g>
		<g>
			<path class="st0" d="M1307.8,603.5c0,82.8,67.2,150,150,150c82.1,0,148.8-66,150-147.8"/>
			<g>
				<polygon points="1615.7,612.5 1614.2,613.8 1607.7,606.4 1600.8,613.5 1599.4,612.1 1607.8,603.5 				"/>
			</g>
		</g>
	</g>
	<g>
		<g>
			<path class="st0" d="M1283,603.5c0,96.6,78.4,175,175,175c95.9,0,173.8-77.2,175-172.8"/>
			<g>
				<polygon points="1641,612.5 1639.5,613.8 1633,606.4 1626.1,613.5 1624.6,612.1 1633,603.5 				"/>
			</g>
		</g>
	</g>
	<g>
		<g>
			<path class="st0" d="M1557.5,520.5c0-55.2-44.8-100-100-100c-54.5,0-98.8,43.6-100,97.8"/>
			<g>
				<polygon points="1349.7,511.4 1351.2,510.1 1357.6,517.6 1364.6,510.6 1366,512 1357.5,520.5 				"/>
			</g>
		</g>
	</g>
	<g>
		<g>
			<path class="st0" d="M1582.5,520.5c0-69-56-125-125-125c-68.3,0-123.8,54.8-125,122.8"/>
			<g>
				<polygon points="1324.6,511.4 1326.1,510.1 1332.6,517.6 1339.6,510.5 1341,512 1332.5,520.5 				"/>
			</g>
		</g>
	</g>
	<g>
		<g>
			<path class="st0" d="M1607.3,520.5c0-82.8-67.2-150-150-150c-82.1,0-148.8,66-150,147.8"/>
			<g>
				<polygon points="1299.3,511.5 1300.8,510.2 1307.4,517.6 1314.2,510.5 1315.7,511.9 1307.3,520.5 				"/>
			</g>
		</g>
	</g>
	<g>
		<g>
			<path class="st0" d="M1632,520.5c0-96.6-78.4-175-175-175c-95.9,0-173.8,77.2-175,172.8"/>
			<g>
				<polygon points="1274.1,511.5 1275.6,510.2 1282.1,517.6 1289,510.5 1290.4,511.9 1282,520.5 				"/>
			</g>
		</g>
	</g>
	<g>
		<text transform="matrix(1 0 0 1 1534.0647 557.658)"><tspan x="0" y="0" class="st2 st3 st4 st5">evaluative</tspan><tspan x="11.1" y="26.5" class="st2 st3 st4 st5">research</tspan></text>
	</g>
	<g>
		<text transform="matrix(1 0 0 1 1769.147 557.6577)"><tspan x="0" y="0" class="st2 st3 st4 st5">realize</tspan><tspan x="-7.3" y="26.5" class="st2 st3 st4 st5">offering</tspan></text>
	</g>
	<g>
		<g>
			<line class="st0" x1="1669" y1="565" x2="1750" y2="565"/>
			<g>
				<polygon points="1743.7,573.2 1742.4,571.8 1749.6,565.1 1742.4,558.3 1743.7,556.9 1752.5,565.1 				"/>
			</g>
		</g>
	</g>
</g>
<g id="Layer_2">
</g>
</svg>
