<?xml version="1.0" encoding="utf-8"?>
<!-- Generator: Adobe Illustrator 19.1.0, SVG Export Plug-In . SVG Version: 6.00 Build 0)  -->
<svg version="1.1" xmlns="http://www.w3.org/2000/svg" xmlns:xlink="http://www.w3.org/1999/xlink" x="0px" y="0px"
	 viewBox="0 0 1920 1080" style="enable-background:new 0 0 1920 1080;" xml:space="preserve">
<style type="text/css">
	.st0{fill:none;stroke:#000000;stroke-width:2;stroke-miterlimit:10;}
	.st1{fill:#BA8FFF;}
	.st2{fill:#34314C;}
	.st3{fill:#353535;}
	.st4{font-family:'Soleil-Bold';}
	.st5{font-size:22.0424px;}
	.st6{letter-spacing:1;}
</style>
<g id="Layer_1">
</g>
<g id="Layer_2">
	<g>
		<g>
			<g>
				<line class="st0" x1="433" y1="592" x2="514" y2="592"/>
				<g>
					<polygon points="507.4,600.2 506,598.7 513.2,592 506,585.3 507.4,583.8 516.2,592 					"/>
				</g>
			</g>
		</g>
		<g>
			<text transform="matrix(1 0 0 1 342.8513 584.6646)"><tspan x="0" y="0" class="st3 st4 st5 st6">sense </tspan><tspan x="0" y="26.5" class="st3 st4 st5 st6">intent</tspan></text>
		</g>
		<g>
			<text transform="matrix(1 0 0 1 532.3181 597.8901)" class="st3 st4 st5 st6">research</text>
		</g>
		<g>
			<text transform="matrix(1 0 0 1 752.8418 584.6643)"><tspan x="0" y="0" class="st3 st4 st5 st6">frame insights</tspan><tspan x="0.8" y="26.5" class="st3 st4 st5 st6">and principals</tspan></text>
		</g>
		<g>
			<text transform="matrix(1 0 0 1 1044.3418 584.6643)"><tspan x="0" y="0" class="st3 st4 st5 st6">generate</tspan><tspan x="0" y="26.5" class="st3 st4 st5 st6">concepts</tspan></text>
		</g>
		<g>
			<g>
				<line class="st0" x1="653" y1="592" x2="735" y2="592"/>
				<g>
					<polygon points="727.9,600.2 726.5,598.7 733.8,592 726.5,585.3 727.9,583.8 736.7,592 					"/>
				</g>
			</g>
		</g>
		<g>
			<g>
				<line class="st0" x1="1170" y1="592" x2="1252" y2="592"/>
				<g>
					<polygon points="1245.2,600.2 1243.9,598.7 1251.1,592 1243.9,585.3 1245.2,583.8 1254,592 					"/>
				</g>
			</g>
		</g>
		<g>
			<g>
				<line class="st0" x1="945" y1="592" x2="1026" y2="592"/>
				<g>
					<polygon points="1019.4,600.2 1018,598.7 1025.3,592 1018,585.3 1019.4,583.8 1028.2,592 					"/>
				</g>
			</g>
		</g>
		<g>
			<text transform="matrix(1 0 0 1 1270.157 584.6643)"><tspan x="0" y="0" class="st3 st4 st5 st6">evaluate on</tspan><tspan x="11.2" y="26.5" class="st3 st4 st5 st6">principals</tspan></text>
		</g>
		<g>
			<g>
				<path class="st0" d="M580.5,639.7c0,145.1,117.6,262.7,262.7,262.7c144.3,0,261.5-116.4,262.6-260.5"/>
				<g>
					<polygon points="1113.8,648.7 1112.3,650 1105.8,642.6 1098.9,649.7 1097.4,648.3 1105.8,639.7 					"/>
				</g>
			</g>
		</g>
		<g>
			<g>
				<text transform="matrix(1 0 0 1 1537.647 588.6643)"><tspan x="0" y="0" class="st3 st4 st5 st6">realize</tspan><tspan x="-7.3" y="26.5" class="st3 st4 st5 st6">offering</tspan></text>
			</g>
			<g>
				<g>
					<line class="st0" x1="1437" y1="596" x2="1519" y2="596"/>
					<g>
						<polygon points="1512.2,604.2 1510.9,602.8 1518.1,596.1 1510.9,589.3 1512.2,587.9 1521,596.1 						"/>
					</g>
				</g>
			</g>
		</g>
		<g>
			<g>
				<path class="st0" d="M1325.5,549.2c0-205.7-166.8-372.5-372.5-372.5c-205,0-371.3,165.6-372.5,370.3"/>
				<g>
					<polygon points="572.6,540.2 574.1,538.9 580.6,546.3 587.5,539.3 588.9,540.7 580.5,549.2 					"/>
				</g>
			</g>
		</g>
	</g>
</g>
</svg>
